<svg width="48" height="39" viewBox="0 0 48 39" fill="none" xmlns="http://www.w3.org/2000/svg">
<path d="M14.2785 7.91913C7.14478 7.91913 1.37885 13.1121 1.37885 19.5036V19.6677C2.09872 19.6578 2.60679 19.5757 3.02902 19.4551C3.42357 19.342 3.76136 19.1916 4.16421 19.0001C4.30719 16.6782 5.43493 14.4936 7.31574 12.8951C9.19655 11.2967 11.6876 10.4059 14.2771 10.4056H23.3088C28.7092 10.4056 33.1337 14.2149 33.4369 19.0038C33.8356 19.194 34.1706 19.3432 34.561 19.4551C34.9846 19.577 35.4954 19.659 36.2222 19.6677V19.5011C36.2084 13.1109 30.43 7.91913 23.3101 7.91913H14.2785ZM33.9242 24.1521C33.6039 24.0873 33.287 24.0097 32.9745 23.9196C32.1605 23.6859 31.3963 23.3415 30.6847 23.0207L30.0576 22.741C29.4305 22.47 28.7798 22.2773 27.5837 22.2773C26.6866 22.2773 25.9142 22.4439 25.1278 22.7509C24.845 22.8659 24.567 22.9903 24.2944 23.1239L24.2764 23.1314C23.983 23.2706 23.6576 23.4248 23.2991 23.5702C22.5577 23.8761 21.7762 24.0966 20.9733 24.2267H33.9242V24.1521ZM2.95011 26.5677L12.8927 28.5693C16.7648 29.35 20.7947 29.35 24.6682 28.5693L34.6108 26.5677H34.95C36.297 26.5677 37.4765 27.6393 37.4765 29.0541C37.4765 30.469 36.297 31.5406 34.95 31.5406H2.62478C1.27779 31.5406 0.0982971 30.469 0.0982971 29.0541C0.0982971 27.6393 1.27779 26.5677 2.62478 26.5677H2.95011ZM16.6305 24.2267H3.64922V24.1831C5.05298 23.9221 6.02758 23.4583 6.86236 23.0568L6.89005 23.0443C7.38566 22.8056 7.76913 22.6229 8.22736 22.4911C8.6759 22.3631 9.22411 22.2773 10.0187 22.2773C10.8134 22.2773 11.3602 22.3631 11.8074 22.4911C12.2642 22.6216 12.6449 22.8032 13.1391 23.0419L13.1696 23.0555C14.0528 23.482 15.0911 23.9755 16.6305 24.2267Z" fill="#14532D"/>
<path d="M23.2271 12.6086C23.2271 12.8631 23.1145 13.1073 22.9141 13.2873C22.7136 13.4673 22.4418 13.5684 22.1583 13.5684C21.8749 13.5684 21.6031 13.4673 21.4026 13.2873C21.2022 13.1073 21.0896 12.8631 21.0896 12.6086C21.0896 12.354 21.2022 12.1099 21.4026 11.9299C21.6031 11.7499 21.8749 11.6488 22.1583 11.6488C22.4418 11.6488 22.7136 11.7499 22.9141 11.9299C23.1145 12.1099 23.2271 12.354 23.2271 12.6086ZM15.4164 13.5671C15.5599 13.5718 15.703 13.5504 15.8371 13.5043C15.9712 13.4582 16.0935 13.3883 16.1969 13.2987C16.3002 13.2092 16.3824 13.1019 16.4385 12.9832C16.4947 12.8645 16.5236 12.7369 16.5236 12.608C16.5236 12.479 16.4947 12.3514 16.4385 12.2327C16.3824 12.114 16.3002 12.0067 16.1969 11.9172C16.0935 11.8277 15.9712 11.7578 15.8371 11.7117C15.703 11.6655 15.5599 11.6442 15.4164 11.6488C15.1398 11.6578 14.8779 11.7627 14.6857 11.9416C14.4935 12.1205 14.3861 12.3594 14.3861 12.608C14.3861 12.8565 14.4935 13.0954 14.6857 13.2743C14.8779 13.4532 15.1398 13.5582 15.4164 13.5671ZM26.9455 15.299C26.9455 15.5535 26.8329 15.7976 26.6325 15.9776C26.4321 16.1576 26.1602 16.2587 25.8768 16.2587C25.5933 16.2587 25.3215 16.1576 25.1211 15.9776C24.9206 15.7976 24.808 15.5535 24.808 15.299C24.808 15.0444 24.9206 14.8003 25.1211 14.6203C25.3215 14.4403 25.5933 14.3392 25.8768 14.3392C26.1602 14.3392 26.4321 14.4403 26.6325 14.6203C26.8329 14.8003 26.9455 15.0444 26.9455 15.299ZM11.698 16.2587C11.8415 16.2634 11.9845 16.242 12.1186 16.1959C12.2527 16.1498 12.3751 16.0799 12.4784 15.9903C12.5818 15.9008 12.664 15.7935 12.7201 15.6748C12.7762 15.5562 12.8052 15.4285 12.8052 15.2996C12.8052 15.1706 12.7762 15.043 12.7201 14.9243C12.664 14.8056 12.5818 14.6983 12.4784 14.6088C12.3751 14.5193 12.2527 14.4494 12.1186 14.4033C11.9845 14.3572 11.8415 14.3358 11.698 14.3404C11.4214 14.3494 11.1594 14.4543 10.9673 14.6332C10.7751 14.8121 10.6677 15.051 10.6677 15.2996C10.6677 15.5481 10.7751 15.787 10.9673 15.9659C11.1594 16.1448 11.4214 16.2498 11.698 16.2587ZM18.7874 17.3553C19.0708 17.3553 19.3427 17.2542 19.5431 17.0742C19.7435 16.8942 19.8561 16.65 19.8561 16.3955C19.8561 16.1409 19.7435 15.8968 19.5431 15.7168C19.3427 15.5368 19.0708 15.4357 18.7874 15.4357C18.5039 15.4357 18.2321 15.5368 18.0317 15.7168C17.8312 15.8968 17.7186 16.1409 17.7186 16.3955C17.7186 16.65 17.8312 16.8942 18.0317 17.0742C18.2321 17.2542 18.5039 17.3553 18.7874 17.3553ZM1.57265 34.2459V32.6471C1.90675 32.7366 2.25746 32.7818 2.62478 32.7826H4.34141V34.2446C4.34141 35.6085 5.43506 36.5123 6.52318 36.5123H31.0239C32.1134 36.5123 33.2209 35.6047 33.232 34.226V32.7838H34.9486C35.3168 32.783 35.6675 32.7378 36.0007 32.6483V34.2397C35.9827 36.7659 33.8729 39 31.0253 39H6.5218C3.66998 39 1.57127 36.7622 1.57127 34.2459M10.0187 18.7974C7.52824 18.7974 6.21585 19.424 5.04744 19.986L4.99899 20.0083C4.52276 20.2371 4.03823 20.4708 3.44987 20.6387C2.84351 20.8127 2.15132 20.9122 1.23763 20.9122C0.55652 20.9122 0 21.4095 0 22.0311C0 22.6502 0.55652 23.1488 1.23763 23.1488C3.72813 23.1488 5.04052 22.5222 6.20893 21.9602L6.25738 21.9378C6.73361 21.7091 7.21814 21.4754 7.80789 21.3075C8.41286 21.1335 9.10505 21.034 10.0187 21.034C10.9324 21.034 11.6218 21.1335 12.2282 21.3075C12.8152 21.4741 13.2983 21.7078 13.7732 21.9366L13.823 21.9602C14.9914 22.5222 16.3038 23.1488 18.8012 23.1488C20.6092 23.1488 21.7915 22.8193 22.7273 22.4376C23.0485 22.3071 23.3434 22.1678 23.6438 22.0261L23.6507 22.0224C23.947 21.8831 24.2571 21.7364 24.5755 21.6121C25.521 21.2308 26.5458 21.0338 27.5823 21.034C28.9958 21.034 29.8527 21.2715 30.6598 21.6221C30.9062 21.7298 31.1448 21.8359 31.3755 21.9403C32.0636 22.2511 32.6948 22.5346 33.3967 22.736C34.3518 23.01 35.3484 23.1492 36.351 23.1488C37.0321 23.1488 37.5886 22.6515 37.5886 22.0298C37.5886 21.4107 37.0321 20.9109 36.351 20.9109C35.4373 20.9109 34.7479 20.8127 34.1415 20.6399C33.5545 20.4708 33.0714 20.2383 32.5979 20.0096L32.5495 19.986C31.9196 19.6826 31.28 19.3768 30.4521 19.1493C29.7032 18.9441 28.784 18.7974 27.5837 18.7974C26.3821 18.7974 25.4628 18.9441 24.7139 19.1493C24.0494 19.332 23.4541 19.5856 22.8145 19.8579C22.5561 19.9681 22.288 20.08 22.0102 20.1936C21.0688 20.5715 20.0305 20.9122 18.8012 20.9122C17.8834 20.9122 17.1898 20.8127 16.5821 20.6387C15.9923 20.4696 15.5078 20.2371 15.0329 20.0083L14.9873 19.986C13.8202 19.424 12.5092 18.7974 10.0187 18.7974ZM3.82503 25.4699H33.7359L24.365 27.3559C20.6871 28.096 16.8724 28.096 13.1945 27.3559L3.82503 25.4699Z" fill="#14532D"/>
<path d="M1.5 20.875V19.625L4 16.5L7 12.125L10 10.25L18 9H24.5L30.5 11.5L36 19.625V20.875H1.5Z" fill="#14532D"/>
<path d="M43.3 7.59812C43.3 7.75583 43.2257 7.90708 43.0935 8.01859C42.9613 8.13011 42.782 8.19276 42.595 8.19276H38.13V11.9588C38.13 12.1165 38.0557 12.2677 37.9235 12.3793C37.7913 12.4908 37.612 12.5534 37.425 12.5534C37.238 12.5534 37.0587 12.4908 36.9265 12.3793C36.7943 12.2677 36.72 12.1165 36.72 11.9588V8.19276H32.255C32.068 8.19276 31.8887 8.13011 31.7565 8.01859C31.6243 7.90708 31.55 7.75583 31.55 7.59812C31.55 7.44042 31.6243 7.28917 31.7565 7.17765C31.8887 7.06614 32.068 7.00349 32.255 7.00349H36.72V3.23746C36.72 3.07975 36.7943 2.9285 36.9265 2.81699C37.0587 2.70547 37.238 2.64282 37.425 2.64282C37.612 2.64282 37.7913 2.70547 37.9235 2.81699C38.0557 2.9285 38.13 3.07975 38.13 3.23746V7.00349H42.595C42.782 7.00349 42.9613 7.06614 43.0935 7.17765C43.2257 7.28917 43.3 7.44042 43.3 7.59812Z" fill="#14532D"/>
<path d="M36 32.75H1.5L2.5 34.625L5 37.125L10 38.375H32L36 32.75Z" fill="#14532D"/>
</svg>
