<svg width="50" height="50" viewBox="0 0 50 50" fill="none" xmlns="http://www.w3.org/2000/svg">
<path d="M36.0269 29.7769C35.2133 30.5904 35.2133 31.9096 36.0269 32.7231C36.8404 33.5367 38.1596 33.5367 38.9731 32.7231L45.0419 26.6544C45.0731 26.6231 45.1035 26.591 45.1327 26.5583C45.5625 26.1767 45.8333 25.62 45.8333 25C45.8333 24.38 45.5625 23.8233 45.1327 23.4417C45.1035 23.4089 45.0731 23.3769 45.0419 23.3456L38.9731 17.2768C38.1596 16.4633 36.8404 16.4633 36.0269 17.2768C35.2133 18.0904 35.2133 19.4095 36.0269 20.2231L38.7204 22.9167H27.0833C25.9327 22.9167 25 23.8494 25 25C25 26.1506 25.9327 27.0833 27.0833 27.0833H38.7204L36.0269 29.7769Z" fill="#14532D"/>
<path d="M10.4167 4.16666C6.96489 4.16666 4.16666 6.96489 4.16666 10.4167V39.5833C4.16666 43.0352 6.96489 45.8333 10.4167 45.8333H30.2083C33.0848 45.8333 35.4167 43.5015 35.4167 40.625V34.8596C35.1081 34.6812 34.8177 34.4602 34.5537 34.1962C33.1904 32.8329 32.9694 30.7602 33.8904 29.1667H27.0833C24.7821 29.1667 22.9167 27.3012 22.9167 25C22.9167 22.6987 24.7821 20.8333 27.0833 20.8333H33.8904C32.9694 19.2399 33.1904 17.167 34.5537 15.8037C34.8177 15.5398 35.1081 15.3187 35.4167 15.1404V9.37499C35.4167 6.49851 33.0848 4.16666 30.2083 4.16666H10.4167Z" fill="#14532D"/>
</svg>
