<svg width="24" height="24" viewBox="0 0 24 24" fill="none" xmlns="http://www.w3.org/2000/svg">
<path d="M9.5656 0C6.34687 0 3.74529 2.10804 3.74529 4.70258V4.7692C4.07009 4.76516 4.29933 4.73185 4.48985 4.6829C4.66787 4.63698 4.82028 4.57591 5.00204 4.49819C5.06655 3.55563 5.57539 2.66882 6.42401 2.01996C7.27264 1.3711 8.3966 1.00946 9.56497 1.00935H13.6401C16.0767 1.00935 18.0731 2.55569 18.2099 4.4997C18.3898 4.57692 18.5409 4.63748 18.7171 4.6829C18.9082 4.73236 19.1387 4.76567 19.4666 4.7692V4.70157C19.4604 2.10753 16.8532 0 13.6407 0H9.5656ZM18.4297 6.58957C18.2852 6.56326 18.1423 6.53177 18.0012 6.4952C17.634 6.40032 17.2892 6.26052 16.9681 6.13031L16.6851 6.01676C16.4022 5.90674 16.1086 5.82852 15.5689 5.82852C15.1642 5.82852 14.8156 5.89615 14.4608 6.0208C14.3332 6.06746 14.2078 6.11797 14.0848 6.1722L14.0767 6.17523C13.9443 6.23176 13.7975 6.29434 13.6357 6.35338C13.3012 6.47754 12.9486 6.56707 12.5863 6.61985H18.4297V6.58957ZM4.45424 7.57016L8.94034 8.38269C10.6874 8.69963 12.5057 8.69963 14.2535 8.38269L18.7395 7.57016H18.8926C19.5003 7.57016 20.0325 8.00519 20.0325 8.57951C20.0325 9.15384 19.5003 9.58887 18.8926 9.58887H4.30745C3.69969 9.58887 3.1675 9.15384 3.1675 8.57951C3.1675 8.00519 3.69969 7.57016 4.30745 7.57016H4.45424ZM10.6268 6.61985H4.76968V6.60219C5.40306 6.49621 5.8428 6.30796 6.21945 6.14495L6.23194 6.1399C6.45556 6.04301 6.62858 5.96882 6.83534 5.91532C7.03772 5.86334 7.28507 5.82852 7.64361 5.82852C8.00215 5.82852 8.24888 5.86334 8.45063 5.91532C8.65676 5.96831 8.82853 6.042 9.05153 6.13889L9.06527 6.14445C9.46378 6.31755 9.93226 6.51791 10.6268 6.61985Z" fill="white"/>
<path d="M13.6032 1.90364C13.6032 2.00697 13.5524 2.10607 13.462 2.17914C13.3715 2.2522 13.2489 2.29325 13.121 2.29325C12.9931 2.29325 12.8705 2.2522 12.78 2.17914C12.6896 2.10607 12.6388 2.00697 12.6388 1.90364C12.6388 1.80031 12.6896 1.70121 12.78 1.62815C12.8705 1.55508 12.9931 1.51403 13.121 1.51403C13.2489 1.51403 13.3715 1.55508 13.462 1.62815C13.5524 1.70121 13.6032 1.80031 13.6032 1.90364ZM10.079 2.29275C10.1438 2.29463 10.2083 2.28595 10.2688 2.26724C10.3293 2.24852 10.3846 2.22014 10.4312 2.1838C10.4778 2.14746 10.5149 2.1039 10.5402 2.05572C10.5656 2.00754 10.5786 1.95573 10.5786 1.90339C10.5786 1.85104 10.5656 1.79924 10.5402 1.75106C10.5149 1.70288 10.4778 1.65932 10.4312 1.62298C10.3846 1.58664 10.3293 1.55826 10.2688 1.53954C10.2083 1.52082 10.1438 1.51215 10.079 1.51403C9.95424 1.51766 9.83604 1.56027 9.74934 1.6329C9.66263 1.70552 9.61418 1.80249 9.61418 1.90339C9.61418 2.00429 9.66263 2.10126 9.74934 2.17388C9.83604 2.24651 9.95424 2.28912 10.079 2.29275ZM15.281 2.99576C15.281 3.09909 15.2302 3.19819 15.1397 3.27126C15.0493 3.34433 14.9266 3.38537 14.7988 3.38537C14.6709 3.38537 14.5482 3.34433 14.4578 3.27126C14.3673 3.19819 14.3165 3.09909 14.3165 2.99576C14.3165 2.89243 14.3673 2.79333 14.4578 2.72027C14.5482 2.6472 14.6709 2.60615 14.7988 2.60615C14.9266 2.60615 15.0493 2.6472 15.1397 2.72027C15.2302 2.79333 15.281 2.89243 15.281 2.99576ZM8.40128 3.38537C8.46603 3.38726 8.53058 3.37858 8.59108 3.35986C8.65158 3.34114 8.7068 3.31277 8.75342 3.27643C8.80005 3.24008 8.83714 3.19652 8.86247 3.14835C8.8878 3.10017 8.90085 3.04836 8.90085 2.99602C8.90085 2.94367 8.8878 2.89186 8.86247 2.84369C8.83714 2.79551 8.80005 2.75195 8.75342 2.71561C8.7068 2.67927 8.65158 2.65089 8.59108 2.63217C8.53058 2.61345 8.46603 2.60477 8.40128 2.60666C8.27648 2.61029 8.15828 2.6529 8.07158 2.72552C7.98487 2.79814 7.93642 2.89511 7.93642 2.99602C7.93642 3.09692 7.98487 3.19389 8.07158 3.26651C8.15828 3.33913 8.27648 3.38174 8.40128 3.38537ZM11.6 3.8305C11.7279 3.8305 11.8506 3.78945 11.941 3.71639C12.0314 3.64332 12.0822 3.54422 12.0822 3.44089C12.0822 3.33756 12.0314 3.23846 11.941 3.16539C11.8506 3.09233 11.7279 3.05128 11.6 3.05128C11.4721 3.05128 11.3495 3.09233 11.259 3.16539C11.1686 3.23846 11.1178 3.33756 11.1178 3.44089C11.1178 3.54422 11.1686 3.64332 11.259 3.71639C11.3495 3.78945 11.4721 3.8305 11.6 3.8305ZM3.83273 10.687V10.038C3.98348 10.0744 4.14172 10.0927 4.30745 10.093H5.082V10.6865C5.082 11.2402 5.57545 11.6071 6.06641 11.6071H17.1211C17.6127 11.6071 18.1124 11.2387 18.1174 10.679V10.0935H18.892C19.0581 10.0932 19.2164 10.0749 19.3667 10.0385V10.6845C19.3586 11.71 18.4066 12.6169 17.1218 12.6169H6.06579C4.77905 12.6169 3.83211 11.7085 3.83211 10.687M7.64361 4.41593C6.5199 4.41593 5.92775 4.67028 5.40056 4.8984L5.3787 4.90748C5.16382 5.00034 4.9452 5.09522 4.67973 5.16335C4.40615 5.23401 4.09383 5.27438 3.68157 5.27438C3.37426 5.27438 3.12315 5.47625 3.12315 5.72859C3.12315 5.97992 3.37426 6.1823 3.68157 6.1823C4.80528 6.1823 5.39743 5.92794 5.92462 5.69982L5.94648 5.69074C6.16136 5.59788 6.37998 5.503 6.64607 5.43487C6.91904 5.36421 7.23135 5.32384 7.64361 5.32384C8.05586 5.32384 8.36693 5.36421 8.64052 5.43487C8.90536 5.5025 9.12336 5.59737 9.33761 5.69024L9.36009 5.69982C9.88728 5.92794 10.4794 6.1823 11.6063 6.1823C12.422 6.1823 12.9555 6.04856 13.3777 5.89362C13.5226 5.84063 13.6557 5.78411 13.7912 5.72657L13.7943 5.72506C13.928 5.66853 14.0679 5.60898 14.2116 5.55851C14.6382 5.40374 15.1006 5.32376 15.5683 5.32384C16.206 5.32384 16.5927 5.42023 16.9569 5.56255C17.068 5.60629 17.1757 5.64936 17.2798 5.69175C17.5902 5.81792 17.8751 5.93298 18.1917 6.01474C18.6227 6.12597 19.0723 6.18249 19.5247 6.1823C19.832 6.1823 20.0831 5.98043 20.0831 5.72809C20.0831 5.47676 19.832 5.27388 19.5247 5.27388C19.1125 5.27388 18.8014 5.23401 18.5278 5.16386C18.263 5.09522 18.045 5.00085 17.8313 4.90799L17.8095 4.8984C17.5253 4.77526 17.2367 4.65111 16.8632 4.55875C16.5252 4.47548 16.1105 4.41593 15.5689 4.41593C15.0267 4.41593 14.612 4.47548 14.2741 4.55875C13.9742 4.63294 13.7056 4.73589 13.4171 4.84642C13.3005 4.89116 13.1795 4.93658 13.0542 4.98268C12.6294 5.1361 12.1609 5.27438 11.6063 5.27438C11.1921 5.27438 10.8792 5.23401 10.605 5.16335C10.3389 5.09472 10.1203 5.00034 9.90602 4.90748L9.88541 4.8984C9.35884 4.67028 8.76732 4.41593 7.64361 4.41593ZM4.84901 7.12453H18.3448L14.1167 7.89012C12.4572 8.19059 10.736 8.19059 9.07651 7.89012L4.84901 7.12453Z" fill="white"/>
<path fill-rule="evenodd" clip-rule="evenodd" d="M6.01859 22.1165L6.05242 22.2376C6.12537 22.4987 6.06694 22.7726 5.88999 22.9989C5.71304 23.2252 5.43207 23.3855 5.10887 23.4444L3.28097 23.7778C2.95777 23.8367 2.61884 23.7895 2.33872 23.6465C2.0586 23.5036 1.86025 23.2765 1.7873 23.0154L0.275162 17.6027C0.202212 17.3415 0.260638 17.0677 0.437587 16.8414C0.614536 16.615 0.895513 16.4548 1.21871 16.3958L3.04661 16.0625C3.32103 16.0123 3.60836 16.0385 3.86208 16.1367C4.1158 16.235 4.32105 16.3995 4.44458 16.6038C5.1857 16.2218 6.05017 15.7703 6.30867 15.6114C6.52844 15.4767 6.80263 15.3946 7.03465 15.3404C7.27469 15.2865 7.5189 15.2456 7.76566 15.2179C8.04175 15.1863 8.31944 15.1646 8.59792 15.153L8.61248 15.1525L8.61688 15.1522L8.61871 15.1518L8.63023 15.1518L12.9128 15.1469L12.9397 15.1492L12.9469 15.1499L12.9769 15.1517L13.0995 15.1573C13.2063 15.1616 13.3591 15.1653 13.5401 15.1644C13.9076 15.162 14.3654 15.1391 14.7767 15.0641C15.1569 14.9947 15.5826 15.0377 15.8791 15.3106C16.134 15.5445 16.1739 15.8456 16.1636 16.0606C16.1496 16.3291 16.0496 16.6267 15.8915 16.893C16.1646 16.7475 16.4617 16.58 16.7802 16.3998L16.8483 16.3615C17.7454 15.8528 18.8091 15.2501 19.8052 14.9236C20.9431 14.55 21.8996 14.7398 22.4613 15.2836C22.9616 15.7676 23.0818 16.5006 22.6799 17.0286C22.5793 17.1613 22.4114 17.312 22.2402 17.4534C22.0572 17.6052 21.8287 17.7799 21.5733 17.9682C20.9851 18.3956 20.3852 18.8123 19.7742 19.2183C18.4944 20.0741 17.1406 20.9263 16.699 21.1564C16.1869 21.4231 15.5918 21.5482 15.0092 21.629C14.6567 21.675 14.3028 21.7145 13.948 21.7476C13.6885 21.7726 13.4293 21.8 13.1706 21.8298C11.9758 21.9722 11.0092 21.9048 10.1198 21.843L10.0114 21.8353C9.09212 21.7722 8.23933 21.7223 7.17257 21.8807C6.92908 21.9168 6.45078 22.0201 6.01859 22.1165ZM7.06394 16.4148C7.09942 16.3928 7.19709 16.3527 7.37923 16.3102C7.54994 16.2703 7.74886 16.2397 7.94531 16.2163C8.18066 16.1894 8.41736 16.1709 8.65471 16.1609L8.65654 16.1605L12.8604 16.156L12.8898 16.1579C12.9259 16.1603 12.9756 16.1626 13.039 16.1648C13.1646 16.1698 13.3413 16.1743 13.5491 16.1732C13.9231 16.1712 14.4199 16.1499 14.9093 16.0726C14.8924 16.1752 14.8594 16.2756 14.8109 16.3714C14.7453 16.5034 14.6633 16.611 14.5897 16.6777C14.3772 16.8706 14.1896 16.969 14.0726 17.0178C14.0329 17.0349 13.9915 17.0494 13.9489 17.061L13.9355 17.0635L10.6596 17.6278L10.8167 18.6256L10.8504 18.6246L10.9473 18.6209L11.2996 18.6074C11.5954 18.5959 12.0011 18.5788 12.442 18.5574C13.31 18.5149 14.3531 18.453 14.9337 18.3766C15.3353 18.3241 15.7684 18.1416 16.1644 17.9478C16.5773 17.7458 17.0358 17.4868 17.497 17.2257C18.4463 16.6884 19.4134 16.141 20.275 15.8582C21.0199 15.6137 21.3598 15.7918 21.5021 15.9298C21.7066 16.1279 21.6993 16.3905 21.6153 16.5C21.5953 16.527 21.5171 16.6069 21.3465 16.7482C21.1872 16.8792 20.9791 17.0398 20.7325 17.2208C20.1588 17.6376 19.5738 18.0441 18.9779 18.44C17.6873 19.3029 16.3902 20.1153 16.0214 20.3078C15.7229 20.4636 15.3267 20.5602 14.7972 20.634C14.4848 20.6756 14.1711 20.7105 13.8564 20.7388C13.5665 20.7664 13.2771 20.7971 12.9882 20.8309C11.9397 20.9559 11.0998 20.8975 10.1994 20.8351L10.1177 20.8293C9.18533 20.765 8.18954 20.7029 6.947 20.8876C6.66729 20.9293 6.17761 21.0331 5.74298 21.1299L4.76638 17.6342C5.55388 17.2303 6.718 16.6274 7.06394 16.4148ZM3.32154 17.0466L1.49363 17.3799L3.00577 22.7927L4.83368 22.4593L3.32154 17.0466Z" fill="white"/>
</svg>
