<svg width="50" height="50" viewBox="0 0 50 50" fill="none" xmlns="http://www.w3.org/2000/svg">
<g clip-path="url(#clip0_8_41)">
<path d="M40.829 4.65791L39.3512 2.28994C39.6974 2.06895 39.9286 1.68311 39.9286 1.24248C39.9286 0.55625 39.373 0 38.6862 0H10.9471C9.65263 0 8.47314 0.527539 7.62617 1.37588C6.77773 2.2208 6.2291 3.40313 6.2291 4.69551V45.9087C6.2291 48.1679 8.06132 50 10.3205 50H40.3241C42.2274 50 43.771 48.4578 43.771 46.5552V8.05342C43.771 6.32246 42.4901 4.90625 40.829 4.65791ZM14.8182 17.6113L17.5521 20.8481C17.767 21.1034 18.1269 21.1526 18.3554 20.9591L18.4676 20.8653C18.6961 20.6717 18.7098 20.3084 18.4935 20.0532L15.7445 16.7979C15.1902 16.1419 15.4229 15.6096 15.8047 15.2873C16.1864 14.965 16.7502 14.8248 17.3044 15.481L20.0534 18.7362C20.2683 18.9914 20.6295 19.0399 20.858 18.8464L20.9688 18.7526C21.1974 18.5597 21.211 18.1964 20.9948 17.9412L18.2608 14.7037C17.2687 13.529 18.8136 12.2934 19.7824 13.4414C20.9441 14.8166 22.3645 16.4989 22.3645 16.4989C24.1557 18.6049 24.1626 19.538 23.9669 20.8305C23.8096 21.8718 23.5481 22.612 24.6593 23.9283L25.0123 24.3457L23.4538 26.1909L22.8393 25.465C21.7283 24.1486 20.9552 24.282 19.9016 24.2636C18.5947 24.2403 17.6766 24.0747 15.9005 21.9573C15.9005 21.9573 14.4802 20.2749 13.3185 18.8997C12.3497 17.7522 13.8261 16.4359 14.8182 17.6113ZM20.0028 43.7721H19.1202V41.1031L18.2444 42.9559H17.6136L16.7118 41.0929V43.7722H15.8306V39.0684H16.6762L17.9282 41.7353L19.1556 39.0684H20.0026V43.7721H20.0028ZM24.4253 39.8805H22.2291V40.9984H24.1024V41.8044H22.2291V42.96H24.4253V43.7721H21.3478V39.0684H24.4253V39.8805ZM29.1323 43.7721H28.3538L26.4244 40.8342V43.7721H25.5432V39.0684H26.3218L28.2511 42V39.0684H29.1323V43.7721ZM26.289 29.5494L27.8476 27.7035L32.4384 33.1406L30.6198 34.678L26.289 29.5494ZM33.8477 42.1539C33.8477 42.3988 33.8026 42.626 33.7164 42.8291C33.6288 43.033 33.5057 43.2096 33.3511 43.3532C33.1964 43.4962 33.0117 43.6091 32.8023 43.6898C32.5943 43.7691 32.3672 43.8096 32.1277 43.8096C31.8896 43.8096 31.6625 43.7691 31.4531 43.6898C31.2437 43.6091 31.0604 43.4955 30.9086 43.3525C30.7553 43.2088 30.6336 43.033 30.5474 42.8291C30.4598 42.626 30.416 42.3988 30.416 42.1539V39.0684H31.2973V42.1225C31.2973 42.3981 31.3725 42.6157 31.5217 42.7683C31.6722 42.9229 31.8705 42.9975 32.1278 42.9975C32.3852 42.9975 32.5849 42.9223 32.7381 42.7676C32.8914 42.6129 32.9652 42.4016 32.9652 42.1224V39.0684H33.8478L33.8477 42.1539ZM35.8482 17.7153C35.2215 19.2431 34.0953 22.0461 32.8364 23.5383C29.9082 27.2109 29.8685 23.8838 27.4548 26.6574L20.6814 34.678L18.8712 33.1482L18.841 33.166C18.841 33.166 18.8492 33.1557 18.8615 33.1413C19.1475 32.8033 23.1759 28.0333 26.642 23.9276C30.0711 19.8671 32.9336 16.4763 33.537 15.7627C34.7741 14.2965 36.8267 15.3371 35.8482 17.7153ZM8.80839 4.75098V4.69551C8.80839 4.15156 9.04101 3.60762 9.44599 3.20332C9.8497 2.79834 10.3806 2.57871 10.9471 2.57871H36.4913L37.8474 4.75098H8.80839Z" fill="#14532D" stroke="#14532D" stroke-width="0.125"/>
</g>
<defs>
<clipPath id="clip0_8_41">
<rect width="50" height="50" fill="white"/>
</clipPath>
</defs>
</svg>
