<svg width="50" height="50" viewBox="0 0 50 50" fill="none" xmlns="http://www.w3.org/2000/svg">
<path d="M24.4218 0C17.7161 0 12.2961 4.39174 12.2961 9.79705V9.93583C12.9728 9.92742 13.4504 9.85803 13.8473 9.75604C14.2181 9.66036 14.5357 9.53314 14.9144 9.37123C15.0487 7.40756 16.1088 5.56003 17.8768 4.20824C19.6448 2.85645 21.9863 2.10305 24.4205 2.10282H32.9102C37.9867 2.10282 42.1457 5.32435 42.4306 9.37438C42.8054 9.53525 43.1203 9.66142 43.4873 9.75604C43.8855 9.85908 44.3657 9.92847 45.0489 9.93583V9.79495C45.0359 4.39069 39.6042 0 32.9115 0H24.4218ZM42.8887 13.7283C42.5877 13.6735 42.2898 13.6079 41.996 13.5317C41.2308 13.334 40.5125 13.0428 39.8436 12.7715L39.2541 12.5349C38.6646 12.3057 38.053 12.1427 36.9287 12.1427C36.0854 12.1427 35.3593 12.2836 34.6202 12.5433C34.3542 12.6406 34.0929 12.7458 33.8368 12.8588L33.8198 12.8651C33.544 12.9828 33.2382 13.1132 32.9011 13.2362C32.2042 13.4949 31.4697 13.6814 30.7149 13.7914H42.8887V13.7283ZM13.7731 15.7712L23.1191 17.4639C26.7589 18.1242 30.547 18.1242 34.1881 17.4639L43.5342 15.7712H43.853C45.1192 15.7712 46.2279 16.6775 46.2279 17.874C46.2279 19.0705 45.1192 19.9768 43.853 19.9768H13.4673C12.2011 19.9768 11.0924 19.0705 11.0924 17.874C11.0924 16.6775 12.2011 15.7712 13.4673 15.7712H13.7731ZM26.6327 13.7914H14.4303V13.7546C15.7498 13.5338 16.6659 13.1416 17.4506 12.802L17.4766 12.7915C17.9425 12.5896 18.303 12.435 18.7337 12.3236C19.1553 12.2153 19.6707 12.1427 20.4176 12.1427C21.1646 12.1427 21.6786 12.2153 22.0989 12.3236C22.5283 12.434 22.8862 12.5875 23.3508 12.7894L23.3794 12.8009C24.2096 13.1616 25.1856 13.579 26.6327 13.7914Z" fill="#FDE047"/>
<path d="M32.8334 3.9659C32.8334 4.18118 32.7276 4.38763 32.5392 4.53985C32.3508 4.69207 32.0953 4.77759 31.8288 4.77759C31.5624 4.77759 31.3069 4.69207 31.1185 4.53985C30.9301 4.38763 30.8242 4.18118 30.8242 3.9659C30.8242 3.75063 30.9301 3.54417 31.1185 3.39195C31.3069 3.23973 31.5624 3.15421 31.8288 3.15421C32.0953 3.15421 32.3508 3.23973 32.5392 3.39195C32.7276 3.54417 32.8334 3.75063 32.8334 3.9659ZM25.4914 4.77654C25.6263 4.78046 25.7608 4.76239 25.8868 4.72339C26.0129 4.68439 26.1279 4.62527 26.2251 4.54956C26.3222 4.47385 26.3995 4.3831 26.4522 4.28273C26.505 4.18236 26.5322 4.07443 26.5322 3.96538C26.5322 3.85632 26.505 3.74839 26.4522 3.64802C26.3995 3.54765 26.3222 3.4569 26.2251 3.38119C26.1279 3.30548 26.0129 3.24636 25.8868 3.20736C25.7608 3.16836 25.6263 3.15029 25.4914 3.15421C25.2314 3.16178 24.9852 3.25055 24.8045 3.40185C24.6239 3.55314 24.523 3.75516 24.523 3.96538C24.523 4.17559 24.6239 4.37761 24.8045 4.52891C24.9852 4.6802 25.2314 4.76898 25.4914 4.77654ZM36.3288 6.24115C36.3288 6.45643 36.2229 6.66289 36.0345 6.81511C35.8461 6.96733 35.5906 7.05284 35.3242 7.05284C35.0577 7.05284 34.8022 6.96733 34.6138 6.81511C34.4254 6.66289 34.3196 6.45643 34.3196 6.24115C34.3196 6.02588 34.4254 5.81943 34.6138 5.6672C34.8022 5.51498 35.0577 5.42947 35.3242 5.42947C35.5906 5.42947 35.8461 5.51498 36.0345 5.6672C36.2229 5.81943 36.3288 6.02588 36.3288 6.24115ZM21.9961 7.05284C22.131 7.05677 22.2655 7.03869 22.3915 6.99969C22.5176 6.9607 22.6326 6.90158 22.7297 6.82587C22.8269 6.75016 22.9041 6.65941 22.9569 6.55904C23.0097 6.45867 23.0369 6.35073 23.0369 6.24168C23.0369 6.13263 23.0097 6.0247 22.9569 5.92433C22.9041 5.82395 22.8269 5.7332 22.7297 5.65749C22.6326 5.58178 22.5176 5.52266 22.3915 5.48367C22.2655 5.44467 22.131 5.42659 21.9961 5.43052C21.7361 5.43808 21.4899 5.52685 21.3092 5.67815C21.1286 5.82945 21.0276 6.03146 21.0276 6.24168C21.0276 6.4519 21.1286 6.65391 21.3092 6.80521C21.4899 6.95651 21.7361 7.04528 21.9961 7.05284ZM28.6601 7.98019C28.9266 7.98019 29.1821 7.89467 29.3705 7.74245C29.5589 7.59023 29.6647 7.38377 29.6647 7.1685C29.6647 6.95323 29.5589 6.74677 29.3705 6.59455C29.1821 6.44233 28.9266 6.35681 28.6601 6.35681C28.3937 6.35681 28.1382 6.44233 27.9498 6.59455C27.7614 6.74677 27.6555 6.95323 27.6555 7.1685C27.6555 7.38377 27.7614 7.59023 27.9498 7.74245C28.1382 7.89467 28.3937 7.98019 28.6601 7.98019ZM12.4783 22.2647V20.9125C12.7923 20.9882 13.122 21.0264 13.4673 21.0271H15.0809V22.2636C15.0809 23.417 16.109 24.1814 17.1318 24.1814H40.1624C41.1866 24.1814 42.2276 23.4139 42.238 22.2478V21.0282H43.8517C44.1978 21.0275 44.5275 20.9893 44.8407 20.9136V22.2594C44.8238 24.3959 42.8406 26.2853 40.1637 26.2853H17.1305C14.4498 26.2853 12.477 24.3927 12.477 22.2647M20.4176 9.19983C18.0765 9.19983 16.8429 9.72974 15.7446 10.205L15.699 10.2239C15.2514 10.4174 14.7959 10.615 14.2429 10.757C13.6729 10.9042 13.0222 10.9883 12.1634 10.9883C11.5231 10.9883 11 11.4088 11 11.9345C11 12.4581 11.5231 12.8798 12.1634 12.8798C14.5044 12.8798 15.7381 12.3499 16.8364 11.8746L16.8819 11.8557C17.3296 11.6622 17.7851 11.4646 18.3394 11.3226C18.9081 11.1754 19.5587 11.0913 20.4176 11.0913C21.2765 11.0913 21.9245 11.1754 22.4945 11.3226C23.0463 11.4635 23.5004 11.6612 23.9468 11.8546L23.9936 11.8746C25.0919 12.3499 26.3256 12.8798 28.6731 12.8798C30.3727 12.8798 31.484 12.6011 32.3637 12.2784C32.6656 12.168 32.9428 12.0502 33.2251 11.9303L33.2316 11.9272C33.5101 11.8094 33.8016 11.6854 34.1009 11.5802C34.9898 11.2578 35.9531 11.0911 36.9274 11.0913C38.256 11.0913 39.0615 11.2921 39.8202 11.5886C40.0518 11.6798 40.2761 11.7695 40.493 11.8578C41.1397 12.1206 41.7331 12.3604 42.3929 12.5307C43.2906 12.7624 44.2275 12.8802 45.1699 12.8798C45.8102 12.8798 46.3333 12.4592 46.3333 11.9335C46.3333 11.4099 45.8102 10.9872 45.1699 10.9872C44.311 10.9872 43.663 10.9042 43.093 10.758C42.5412 10.615 42.0871 10.4184 41.642 10.225L41.5965 10.205C41.0044 9.94843 40.4032 9.68978 39.625 9.49738C38.921 9.32389 38.0569 9.19983 36.9287 9.19983C35.7991 9.19983 34.9351 9.32389 34.2311 9.49738C33.6064 9.65193 33.0469 9.86642 32.4457 10.0967C32.2027 10.1899 31.9507 10.2845 31.6896 10.3806C30.8047 10.7002 29.8287 10.9883 28.6731 10.9883C27.8104 10.9883 27.1584 10.9042 26.5871 10.757C26.0328 10.614 25.5773 10.4174 25.131 10.2239L25.088 10.205C23.991 9.72974 22.7587 9.19983 20.4176 9.19983ZM14.5955 14.8427H42.7117L33.9031 16.4377C30.4459 17.0637 26.8601 17.0637 23.4028 16.4377L14.5955 14.8427Z" fill="#FDE047"/>
<path fill-rule="evenodd" clip-rule="evenodd" d="M12.5387 46.076L12.6092 46.3283C12.7612 46.8723 12.6395 47.4428 12.2708 47.9143C11.9022 48.3858 11.3168 48.7197 10.6435 48.8425L6.83534 49.537C6.16202 49.6598 5.45591 49.5614 4.87233 49.2636C4.28876 48.9657 3.87552 48.4928 3.72354 47.9488L0.573255 36.6722C0.421275 36.1282 0.542996 35.5577 0.911639 35.0862C1.28028 34.6146 1.86565 34.2808 2.53897 34.158L6.34711 33.4635C6.91882 33.359 7.51742 33.4135 8.046 33.6182C8.57458 33.8229 9.00218 34.1657 9.25955 34.5912C10.8035 33.7955 12.6045 32.8548 13.1431 32.5238C13.6009 32.243 14.1721 32.072 14.6555 31.9591C15.1556 31.8469 15.6644 31.7616 16.1785 31.704C16.7536 31.6381 17.3322 31.593 17.9123 31.5688L17.9427 31.5676L17.9518 31.567L17.9557 31.5663L17.9796 31.5663L26.9016 31.556L26.9576 31.5608L26.9727 31.5624L27.0351 31.5661L27.2905 31.5777C27.5132 31.5867 27.8315 31.5944 28.2085 31.5925C28.9742 31.5876 29.928 31.5397 30.7848 31.3835C31.5769 31.239 32.4637 31.3284 33.0815 31.897C33.6125 32.3843 33.6957 33.0116 33.6741 33.4596C33.6449 34.0189 33.4366 34.639 33.1073 35.1937C33.6763 34.8906 34.2952 34.5417 34.9588 34.1663L35.1006 34.0865C36.9697 33.0267 39.1856 31.7711 41.2608 31.0908C43.6314 30.3125 45.6242 30.7079 46.7945 31.8407C47.8366 32.8492 48.0871 34.3762 47.2498 35.4763C47.0402 35.7527 46.6904 36.0666 46.3338 36.3612C45.9525 36.6776 45.4765 37.0414 44.9445 37.4338C43.719 38.3241 42.4693 39.1924 41.1963 40.0381C38.53 41.821 35.7095 43.5965 34.7895 44.0757C33.7228 44.6314 32.4829 44.892 31.2693 45.0605C30.5347 45.1562 29.7975 45.2386 29.0584 45.3074C28.5177 45.3596 27.9777 45.4167 27.4387 45.4788C24.9495 45.7754 22.9359 45.635 21.0829 45.5062L20.857 45.4903C18.9419 45.3588 17.1653 45.2549 14.9428 45.5847C14.4356 45.66 13.4391 45.8751 12.5387 46.076ZM14.7166 34.1974C14.7905 34.1516 14.9939 34.0682 15.3734 33.9796C15.729 33.8964 16.1435 33.8326 16.5527 33.7839C17.043 33.728 17.5362 33.6895 18.0306 33.6685L18.0345 33.6678L26.7925 33.6583L26.8537 33.6622C26.9289 33.6672 27.0325 33.672 27.1645 33.6767C27.4262 33.6871 27.7944 33.6965 28.2273 33.6941C29.0066 33.69 30.0414 33.6457 31.061 33.4845C31.0259 33.6983 30.957 33.9075 30.856 34.1072C30.7194 34.3821 30.5486 34.6062 30.3953 34.7452C29.9526 35.1471 29.5616 35.3521 29.3179 35.4537C29.2352 35.4894 29.149 35.5196 29.0602 35.5438L29.0323 35.5489L22.2075 36.7245L22.5348 38.8033L22.6049 38.8013L22.8069 38.7936L23.5407 38.7654C24.157 38.7414 25.0022 38.7058 25.9209 38.6611C27.7292 38.5728 29.9024 38.4438 31.1119 38.2846C31.9485 38.1752 32.8508 37.7951 33.6759 37.3913C34.5361 36.9703 35.4913 36.4307 36.452 35.8869C38.4298 34.7674 40.4445 33.6272 42.2396 33.0379C43.7916 32.5285 44.4995 32.8995 44.796 33.1871C45.2221 33.5998 45.2069 34.1469 45.0318 34.375C44.9901 34.4311 44.8272 34.5977 44.4719 34.8921C44.1399 35.165 43.7064 35.4995 43.1928 35.8767C41.9975 36.7449 40.7788 37.5918 39.5373 38.4166C36.8485 40.2144 34.1463 41.9069 33.3778 42.3079C32.7561 42.6325 31.9306 42.8337 30.8276 42.9875C30.1767 43.0741 29.5231 43.1469 28.8675 43.2059C28.2635 43.2633 27.6606 43.3273 27.0587 43.3978C24.8743 43.6582 23.1247 43.5364 21.2487 43.4065L21.0786 43.3944C19.1361 43.2603 17.0615 43.131 14.4729 43.5158C13.8902 43.6027 12.87 43.8189 11.9645 44.0207L9.92995 36.7378C11.5706 35.8964 13.9958 34.6404 14.7166 34.1974ZM6.91987 35.5137L3.11173 36.2082L6.26202 47.4847L10.0702 46.7903L6.91987 35.5137Z" fill="#FDE047"/>
</svg>
